<svg xmlns="http://www.w3.org/2000/svg" viewBox="0 0 40 40" fill-rule="evenodd" clip-rule="evenodd" stroke-linejoin="round" stroke-miterlimit="1.414"><path fill="none" d="M0 0h40v40H0z"/><path d="M28.5 14.612a.788.788 0 01.88-.364c.34.09.57.398.57.75.05 0 .05.001.05.002 0 8.279-6.72 15-15 15-8.28 0-15-6.721-15-15S6.72 0 15 0c.37.001.7.251.79.609a.828.828 0 01-.38.922A9.351 9.351 0 0011 9.5c0 5.243 4.25 9.5 9.5 9.5 3.36 0 6.32-1.75 8-4.388z" fill="#ffdc55"/><g transform="matrix(.6923 0 0 .81563 -929.248 -22.044)"><path d="M1400 61.999c0-2.122-.99-4.156-2.76-5.656-1.77-1.5-4.16-2.343-6.66-2.343h-15.14v16h15.14c2.5 0 4.89-.843 6.66-2.343 1.77-1.5 2.76-3.534 2.76-5.656v-.002z" fill="#acacac"/><clipPath id="a"><path d="M1400 61.999c0-2.122-.99-4.156-2.76-5.656-1.77-1.5-4.16-2.343-6.66-2.343h-15.14v16h15.14c2.5 0 4.89-.843 6.66-2.343 1.77-1.5 2.76-3.534 2.76-5.656v-.002z"/></clipPath><g clip-path="url(#a)"><path d="M1383.37 44.56v16.888h3.494c2.923 0 5.575-1.484 6.719-3.771v-.001c.749-1.485 2.465-2.45 4.368-2.45h2.059V44.56h-16.64z" fill="#7f7f7f"/></g></g><circle cx="729" cy="408" r="11" fill="#acacac" transform="matrix(.9091 0 0 .9091 -639.744 -345.909)"/></svg>