<svg viewBox="0 0 256 256">
    <defs>
        <linearGradient id="gradient">
            <stop offset="0%" style="stop-color:  #ff8a00"></stop>
            <stop offset="100%" style="stop-color: #e52e71"></stop>
        </linearGradient>
    </defs>
<path fill="url(#gradient)" d="M128 23.06c34.18 0 38.23.13 51.72.75 12.48.57 19.26 2.65 23.77 4.41a39.66 39.66 0 0114.72 9.57 39.66 39.66 0 019.57 14.72c1.76 4.51 3.84 11.29 4.41 23.77.62 13.49.75 17.54.75 51.72s-.13 38.23-.75 51.72c-.57 12.48-2.65 19.26-4.41 23.77a42.33 42.33 0 01-24.29 24.29c-4.51 1.76-11.29 3.84-23.77 4.41-13.49.62-17.54.75-51.72.75s-38.23-.13-51.72-.75c-12.48-.57-19.26-2.65-23.77-4.41a39.58 39.58 0 01-14.72-9.57 39.58 39.58 0 01-9.57-14.72c-1.76-4.51-3.84-11.29-4.41-23.77-.62-13.49-.75-17.54-.75-51.72s.13-38.23.75-51.72c.57-12.48 2.65-19.28 4.41-23.77a39.66 39.66 0 019.57-14.72 39.58 39.58 0 0114.72-9.57c4.49-1.76 11.29-3.84 23.77-4.41 13.49-.62 17.54-.75 51.72-.75M128 0C93.24 0 88.88.15 75.23.77S52.3 3.56 44.15 6.72a62.88 62.88 0 00-22.67 14.76A62.83 62.83 0 006.72 44.16C3.56 52.3 1.39 61.6.77 75.23S0 93.24 0 128s.15 39.12.77 52.77 2.79 22.93 5.95 31.08a62.88 62.88 0 0014.76 22.67 62.88 62.88 0 0022.67 14.76c8.15 3.16 17.45 5.33 31.08 5.95s18 .77 52.77.77 39.12-.15 52.77-.77 22.93-2.79 31.07-5.95a65.4 65.4 0 0037.44-37.43c3.16-8.15 5.33-17.45 5.95-31.08s.77-18 .77-52.77-.15-39.12-.77-52.77-2.79-22.93-5.95-31.07a62.83 62.83 0 00-14.76-22.68 62.83 62.83 0 00-22.68-14.76C203.7 3.56 194.4 1.39 180.77.77S162.76 0 128 0zm0 62.27A65.73 65.73 0 10193.73 128 65.73 65.73 0 00128 62.27zm0 108.4A42.67 42.67 0 11170.67 128 42.68 42.68 0 01128 170.67zm83.69-111a15.36 15.36 0 11-15.36-15.36 15.36 15.36 0 0115.36 15.36z">
</path>
</svg>