<svg  viewBox="0 0 16 16">
    <defs>
        <linearGradient id="gradient">
            <stop offset="0%" style="stop-color:  #ff8a00"></stop>
            <stop offset="100%" style="stop-color: #e52e71"></stop>
        </linearGradient>
    </defs>
<path fill="url(#gradient)" d="M0 0v3.2c3.4 0 6.6 1.333 9 3.733 2.4 2.4 3.733 5.6 3.733 9.067H16C16 7.2 8.8 0 0 0zM2.2 11.666c-1.2 0-2.2 1-2.2 2.2C0 15.066 1 16 2.2 16c1.2 0 2.2-1 2.2-2.2-.067-1.134-1.067-2.134-2.2-2.134z"></path><path fill="url(#gradient)" d="M0 5.467v3.2C4.067 8.733 7.333 12 7.333 16h3.2C10.533 10.2 5.8 5.533 0 5.467z">
</path>
</svg>