<svg xmlns="http://www.w3.org/2000/svg" viewBox="0 0 40 40" fill-rule="evenodd" clip-rule="evenodd" stroke-linejoin="round" stroke-miterlimit="1.414"><g transform="translate(-181 -400)"><path fill="none" d="M181 400h40v40h-40z"/><clipPath id="a"><path d="M181 400h40v40h-40z"/></clipPath><g clip-path="url(#a)"><circle cx="718.5" cy="396.5" r="19.5" fill="#ffd952" transform="matrix(.38643 0 0 .38643 -64.118 254.314)"/><g transform="matrix(.96154 0 0 1.125 -1125.154 351.25)"><path d="M1400 62c0-2.122-.99-4.157-2.74-5.657-1.76-1.5-4.14-2.343-6.62-2.343H1374v16h16.64c2.48 0 4.86-.843 6.62-2.343 1.75-1.5 2.74-3.535 2.74-5.657z" fill="#acacac"/><clipPath id="b"><path d="M1400 62c0-2.122-.99-4.157-2.74-5.657-1.76-1.5-4.14-2.343-6.62-2.343H1374v16h16.64c2.48 0 4.86-.843 6.62-2.343 1.75-1.5 2.74-3.535 2.74-5.657z"/></clipPath><g clip-path="url(#b)"><path d="M1383.36 43.333v16.89h4.358c2.402 0 4.576-1.225 5.522-3.112.946-1.887 3.12-3.111 5.522-3.111H1400V43.333h-16.64z" fill="#7f7f7f"/></g></g><circle cx="729" cy="408" r="11" fill="#acacac" transform="translate(-798.091 -141.364) scale(1.36364)"/><g><g transform="matrix(-.6923 0 0 .81563 1163.227 382.956)"><path d="M1400 62.08c0-2.143-1-4.198-2.79-5.714-1.78-1.515-4.2-2.366-6.73-2.366h-15.04v16h15.23c2.48 0 4.85-.834 6.6-2.319 1.75-1.485 2.73-3.499 2.73-5.599v-.002z" fill="#d5d5d5"/><clipPath id="c"><path d="M1400 62.08c0-2.143-1-4.198-2.79-5.714-1.78-1.515-4.2-2.366-6.73-2.366h-15.04v16h15.23c2.48 0 4.85-.834 6.6-2.319 1.75-1.485 2.73-3.499 2.73-5.599v-.002z"/></clipPath><g clip-path="url(#c)"><path d="M1383.37 44.56v16.888h3.494c2.923 0 5.575-1.484 6.719-3.771v-.001c.749-1.485 2.465-2.45 4.368-2.45h2.059V44.56h-16.64z" fill="#9e9e9e"/></g></g><circle cx="729" cy="408" r="11" fill="#d5d5d5" transform="matrix(-.9091 0 0 .9091 873.723 59.091)"/></g></g></g></svg>