<svg  viewBox="0 0 16 16">
    <defs>
        <linearGradient id="gradient">
            <stop offset="0%" style="stop-color:  #ff8a00"></stop>
            <stop offset="100%" style="stop-color: #e52e71"></stop>
        </linearGradient>
    </defs>
<path fill="url(#gradient)" d="M15.667 4.4c-.2-.667-.734-1.267-1.4-1.4C13 2.667 8 2.667 8 2.667s-5 0-6.267.333c-.666.2-1.2.733-1.4 1.4C0 5.666 0 8.333 0 8.333s0 2.6.333 3.867c.2.667.734 1.267 1.4 1.4C3 13.933 8 13.933 8 13.933s5 0 6.267-.333c.666-.2 1.2-.733 1.4-1.4C16 10.933 16 8.333 16 8.333s0-2.667-.333-3.933zm-9.334 6.266V5.933l4.2 2.4-4.2 2.333z">
</path>
</svg>