<svg viewBox="0 0 16 16">
    <defs>
        <linearGradient id="gradient">
            <stop offset="0%" style="stop-color:  #ff8a00"></stop>
            <stop offset="100%" style="stop-color: #e52e71"></stop>
        </linearGradient>
    </defs>
<path fill="url(#gradient)" d="M0 12.867a9.332 9.332 0 005 1.466c6.067 0 9.533-5.133 9.333-9.733.667-.466 1.2-1.066 1.667-1.666-.6.266-1.2.466-1.867.533a3.55 3.55 0 001.467-1.8c-.667.4-1.333.666-2.067.8-.666-.734-1.533-1.134-2.466-1.134-2.134 0-3.667 2-3.2 4-2.734-.133-5.134-1.4-6.734-3.4a3.299 3.299 0 001 4.4c-.533-.066-1.066-.2-1.466-.4C.6 7.468 1.733 8.867 3.267 9.2c-.467.134-1 .134-1.467.067a3.16 3.16 0 003.067 2.267A6.726 6.726 0 010 12.867z">
</path>
</svg>